<mxfile host="drawio-plugin" modified="2023-01-10T06:05:51.159Z" agent="5.0 (Windows NT 6.2; Win64; x64) AppleWebKit/537.36 (KHTML, like Gecko) Chrome/98.0.4758.102 Safari/537.36" etag="kYM40D5seK-vMa4ht5S-" version="15.5.4" type="embed"><diagram id="HICurZ1_apwrd1QmftNx" name="第 1 页"><mxGraphModel dx="1621" dy="806" grid="1" gridSize="10" guides="1" tooltips="1" connect="1" arrows="1" fold="1" page="1" pageScale="1" pageWidth="827" pageHeight="1169" math="0" shadow="0"><root><mxCell id="0"/><mxCell id="1" parent="0"/><mxCell id="ojZgDr6NKGLDcIFSvO-Y-65" value="" style="group" parent="1" vertex="1" connectable="0"><mxGeometry x="65" y="420" width="630" height="130" as="geometry"/></mxCell><mxCell id="ojZgDr6NKGLDcIFSvO-Y-11" value="选取项目，调用模式，触发器，数据日志指标对应api（默认），数据存储模式，" style="rounded=0;whiteSpace=wrap;html=1;dashed=1;verticalAlign=bottom;" parent="ojZgDr6NKGLDcIFSvO-Y-65" vertex="1"><mxGeometry width="630" height="130" as="geometry"/></mxCell><mxCell id="ojZgDr6NKGLDcIFSvO-Y-6" value="创建job" style="rounded=0;whiteSpace=wrap;html=1;" parent="ojZgDr6NKGLDcIFSvO-Y-65" vertex="1"><mxGeometry x="85" y="30" width="200" height="50" as="geometry"/></mxCell><mxCell id="ojZgDr6NKGLDcIFSvO-Y-9" value="创建job" style="rounded=0;whiteSpace=wrap;html=1;" parent="ojZgDr6NKGLDcIFSvO-Y-65" vertex="1"><mxGeometry x="325" y="30" width="200" height="50" as="geometry"/></mxCell><mxCell id="ojZgDr6NKGLDcIFSvO-Y-64" value="" style="group" parent="1" vertex="1" connectable="0"><mxGeometry x="100" y="650" width="560" height="130" as="geometry"/></mxCell><mxCell id="ojZgDr6NKGLDcIFSvO-Y-17" value="调度器(重启后，重新从上游job中获取源数据，进行调度任务重新构建)" style="whiteSpace=wrap;html=1;verticalAlign=top;rounded=0;dashed=1;" parent="ojZgDr6NKGLDcIFSvO-Y-64" vertex="1"><mxGeometry width="560" height="130" as="geometry"/></mxCell><mxCell id="ojZgDr6NKGLDcIFSvO-Y-19" value="任务解析构建" style="rounded=0;whiteSpace=wrap;html=1;" parent="ojZgDr6NKGLDcIFSvO-Y-64" vertex="1"><mxGeometry x="40" y="40" width="80" height="50" as="geometry"/></mxCell><mxCell id="ojZgDr6NKGLDcIFSvO-Y-20" value="触发模式" style="rounded=0;whiteSpace=wrap;html=1;" parent="ojZgDr6NKGLDcIFSvO-Y-64" vertex="1"><mxGeometry x="140" y="40" width="80" height="50" as="geometry"/></mxCell><mxCell id="ojZgDr6NKGLDcIFSvO-Y-21" value="任务分配" style="rounded=0;whiteSpace=wrap;html=1;" parent="ojZgDr6NKGLDcIFSvO-Y-64" vertex="1"><mxGeometry x="240" y="40" width="80" height="50" as="geometry"/></mxCell><mxCell id="ojZgDr6NKGLDcIFSvO-Y-23" value="状态监听" style="rounded=0;whiteSpace=wrap;html=1;" parent="ojZgDr6NKGLDcIFSvO-Y-64" vertex="1"><mxGeometry x="340" y="40" width="80" height="50" as="geometry"/></mxCell><mxCell id="ojZgDr6NKGLDcIFSvO-Y-24" value="资源动态更新" style="rounded=0;whiteSpace=wrap;html=1;" parent="ojZgDr6NKGLDcIFSvO-Y-64" vertex="1"><mxGeometry x="440" y="40" width="80" height="50" as="geometry"/></mxCell><mxCell id="ojZgDr6NKGLDcIFSvO-Y-59" value="" style="group;verticalAlign=bottom;" parent="1" vertex="1" connectable="0"><mxGeometry x="800" y="930" width="349" height="200" as="geometry"/></mxCell><mxCell id="ojZgDr6NKGLDcIFSvO-Y-41" value="task_name为必要参数" style="rounded=0;whiteSpace=wrap;html=1;dashed=1;verticalAlign=bottom;" parent="ojZgDr6NKGLDcIFSvO-Y-59" vertex="1"><mxGeometry width="349" height="200" as="geometry"/></mxCell><mxCell id="ojZgDr6NKGLDcIFSvO-Y-42" value="日志" style="rounded=0;whiteSpace=wrap;html=1;dashed=1;" parent="ojZgDr6NKGLDcIFSvO-Y-59" vertex="1"><mxGeometry x="34.5" y="50" width="80" height="100" as="geometry"/></mxCell><mxCell id="ojZgDr6NKGLDcIFSvO-Y-43" value="指标" style="rounded=0;whiteSpace=wrap;html=1;dashed=1;" parent="ojZgDr6NKGLDcIFSvO-Y-59" vertex="1"><mxGeometry x="134.5" y="50" width="80" height="100" as="geometry"/></mxCell><mxCell id="ojZgDr6NKGLDcIFSvO-Y-44" value="数据" style="rounded=0;whiteSpace=wrap;html=1;dashed=1;" parent="ojZgDr6NKGLDcIFSvO-Y-59" vertex="1"><mxGeometry x="234.5" y="50" width="80" height="100" as="geometry"/></mxCell><mxCell id="ojZgDr6NKGLDcIFSvO-Y-52" style="edgeStyle=none;rounded=0;orthogonalLoop=1;jettySize=auto;html=1;entryX=0.5;entryY=1;entryDx=0;entryDy=0;entryPerimeter=0;" parent="1" source="ojZgDr6NKGLDcIFSvO-Y-41" target="ojZgDr6NKGLDcIFSvO-Y-51" edge="1"><mxGeometry relative="1" as="geometry"/></mxCell><mxCell id="ojZgDr6NKGLDcIFSvO-Y-18" value="" style="edgeStyle=none;rounded=0;orthogonalLoop=1;jettySize=auto;html=1;" parent="1" source="ojZgDr6NKGLDcIFSvO-Y-11" target="ojZgDr6NKGLDcIFSvO-Y-17" edge="1"><mxGeometry relative="1" as="geometry"/></mxCell><mxCell id="ojZgDr6NKGLDcIFSvO-Y-85" value="" style="edgeStyle=none;rounded=0;orthogonalLoop=1;jettySize=auto;html=1;" parent="1" source="ojZgDr6NKGLDcIFSvO-Y-1" target="ojZgDr6NKGLDcIFSvO-Y-84" edge="1"><mxGeometry relative="1" as="geometry"/></mxCell><mxCell id="ojZgDr6NKGLDcIFSvO-Y-1" value="project项目创建" style="rounded=0;whiteSpace=wrap;html=1;" parent="1" vertex="1"><mxGeometry x="280" y="140" width="200" height="50" as="geometry"/></mxCell><mxCell id="ojZgDr6NKGLDcIFSvO-Y-5" value="" style="edgeStyle=orthogonalEdgeStyle;rounded=0;orthogonalLoop=1;jettySize=auto;html=1;" parent="1" source="ojZgDr6NKGLDcIFSvO-Y-2" target="ojZgDr6NKGLDcIFSvO-Y-4" edge="1"><mxGeometry relative="1" as="geometry"/></mxCell><mxCell id="ojZgDr6NKGLDcIFSvO-Y-2" value="项目归档创建" style="rounded=0;whiteSpace=wrap;html=1;" parent="1" vertex="1"><mxGeometry x="280" y="280" width="200" height="50" as="geometry"/></mxCell><mxCell id="ojZgDr6NKGLDcIFSvO-Y-8" style="rounded=0;orthogonalLoop=1;jettySize=auto;html=1;" parent="1" source="ojZgDr6NKGLDcIFSvO-Y-4" target="ojZgDr6NKGLDcIFSvO-Y-6" edge="1"><mxGeometry relative="1" as="geometry"/></mxCell><mxCell id="ojZgDr6NKGLDcIFSvO-Y-10" style="edgeStyle=none;rounded=0;orthogonalLoop=1;jettySize=auto;html=1;" parent="1" source="ojZgDr6NKGLDcIFSvO-Y-4" target="ojZgDr6NKGLDcIFSvO-Y-9" edge="1"><mxGeometry relative="1" as="geometry"/></mxCell><mxCell id="ojZgDr6NKGLDcIFSvO-Y-4" value="页面提供项目选择并创建job" style="rounded=0;whiteSpace=wrap;html=1;fillColor=#ffe6cc;strokeColor=#d79b00;" parent="1" vertex="1"><mxGeometry x="280" y="350" width="200" height="50" as="geometry"/></mxCell><mxCell id="ojZgDr6NKGLDcIFSvO-Y-14" style="edgeStyle=none;rounded=0;orthogonalLoop=1;jettySize=auto;html=1;entryX=0.5;entryY=0;entryDx=0;entryDy=0;" parent="1" source="ojZgDr6NKGLDcIFSvO-Y-12" target="ojZgDr6NKGLDcIFSvO-Y-1" edge="1"><mxGeometry relative="1" as="geometry"/></mxCell><mxCell id="ojZgDr6NKGLDcIFSvO-Y-12" value="页面提供项目创建" style="rounded=0;whiteSpace=wrap;html=1;fillColor=#ffe6cc;strokeColor=#d79b00;" parent="1" vertex="1"><mxGeometry x="280" y="60" width="200" height="50" as="geometry"/></mxCell><mxCell id="ojZgDr6NKGLDcIFSvO-Y-29" style="edgeStyle=none;rounded=0;orthogonalLoop=1;jettySize=auto;html=1;entryX=0.633;entryY=-0.033;entryDx=0;entryDy=0;entryPerimeter=0;" parent="1" source="ojZgDr6NKGLDcIFSvO-Y-17" target="ojZgDr6NKGLDcIFSvO-Y-25" edge="1"><mxGeometry relative="1" as="geometry"/></mxCell><mxCell id="ojZgDr6NKGLDcIFSvO-Y-30" style="edgeStyle=none;rounded=0;orthogonalLoop=1;jettySize=auto;html=1;" parent="1" source="ojZgDr6NKGLDcIFSvO-Y-17" target="ojZgDr6NKGLDcIFSvO-Y-26" edge="1"><mxGeometry relative="1" as="geometry"/></mxCell><mxCell id="ojZgDr6NKGLDcIFSvO-Y-31" style="edgeStyle=none;rounded=0;orthogonalLoop=1;jettySize=auto;html=1;" parent="1" source="ojZgDr6NKGLDcIFSvO-Y-17" target="ojZgDr6NKGLDcIFSvO-Y-27" edge="1"><mxGeometry relative="1" as="geometry"/></mxCell><mxCell id="ojZgDr6NKGLDcIFSvO-Y-32" style="edgeStyle=none;rounded=0;orthogonalLoop=1;jettySize=auto;html=1;" parent="1" source="ojZgDr6NKGLDcIFSvO-Y-17" target="ojZgDr6NKGLDcIFSvO-Y-28" edge="1"><mxGeometry relative="1" as="geometry"/></mxCell><mxCell id="ojZgDr6NKGLDcIFSvO-Y-25" value="执行器" style="rounded=0;whiteSpace=wrap;html=1;dashed=1;" parent="1" vertex="1"><mxGeometry x="100" y="900" width="120" height="60" as="geometry"/></mxCell><mxCell id="ojZgDr6NKGLDcIFSvO-Y-26" value="执行器" style="rounded=0;whiteSpace=wrap;html=1;dashed=1;" parent="1" vertex="1"><mxGeometry x="250" y="900" width="120" height="60" as="geometry"/></mxCell><mxCell id="ojZgDr6NKGLDcIFSvO-Y-27" value="执行器" style="rounded=0;whiteSpace=wrap;html=1;dashed=1;" parent="1" vertex="1"><mxGeometry x="390" y="900" width="120" height="60" as="geometry"/></mxCell><mxCell id="ojZgDr6NKGLDcIFSvO-Y-49" style="edgeStyle=none;rounded=0;orthogonalLoop=1;jettySize=auto;html=1;" parent="1" source="ojZgDr6NKGLDcIFSvO-Y-28" target="ojZgDr6NKGLDcIFSvO-Y-48" edge="1"><mxGeometry relative="1" as="geometry"/></mxCell><mxCell id="ojZgDr6NKGLDcIFSvO-Y-28" value="执行器" style="rounded=0;whiteSpace=wrap;html=1;dashed=1;" parent="1" vertex="1"><mxGeometry x="530" y="900" width="120" height="60" as="geometry"/></mxCell><mxCell id="ojZgDr6NKGLDcIFSvO-Y-45" style="edgeStyle=none;rounded=0;orthogonalLoop=1;jettySize=auto;html=1;" parent="1" source="ojZgDr6NKGLDcIFSvO-Y-35" target="ojZgDr6NKGLDcIFSvO-Y-42" edge="1"><mxGeometry relative="1" as="geometry"/></mxCell><mxCell id="ojZgDr6NKGLDcIFSvO-Y-46" style="edgeStyle=none;rounded=0;orthogonalLoop=1;jettySize=auto;html=1;" parent="1" source="ojZgDr6NKGLDcIFSvO-Y-35" target="ojZgDr6NKGLDcIFSvO-Y-43" edge="1"><mxGeometry relative="1" as="geometry"/></mxCell><mxCell id="ojZgDr6NKGLDcIFSvO-Y-47" style="edgeStyle=none;rounded=0;orthogonalLoop=1;jettySize=auto;html=1;" parent="1" source="ojZgDr6NKGLDcIFSvO-Y-35" target="ojZgDr6NKGLDcIFSvO-Y-44" edge="1"><mxGeometry relative="1" as="geometry"/></mxCell><mxCell id="ojZgDr6NKGLDcIFSvO-Y-56" style="edgeStyle=none;rounded=0;orthogonalLoop=1;jettySize=auto;html=1;" parent="1" source="ojZgDr6NKGLDcIFSvO-Y-50" target="ojZgDr6NKGLDcIFSvO-Y-51" edge="1"><mxGeometry relative="1" as="geometry"/></mxCell><mxCell id="ojZgDr6NKGLDcIFSvO-Y-51" value="消息队列" style="shape=cylinder3;whiteSpace=wrap;html=1;boundedLbl=1;backgroundOutline=1;size=15;dashed=1;direction=south;" parent="1" vertex="1"><mxGeometry x="1380" y="970" width="156" height="60" as="geometry"/></mxCell><mxCell id="ojZgDr6NKGLDcIFSvO-Y-57" value="" style="group" parent="1" vertex="1" connectable="0"><mxGeometry x="1100" y="110" width="380" height="240" as="geometry"/></mxCell><mxCell id="ojZgDr6NKGLDcIFSvO-Y-50" value="数据收集" style="rounded=0;whiteSpace=wrap;html=1;dashed=1;verticalAlign=top;" parent="ojZgDr6NKGLDcIFSvO-Y-57" vertex="1"><mxGeometry width="380" height="240" as="geometry"/></mxCell><mxCell id="ojZgDr6NKGLDcIFSvO-Y-53" value="日志归档" style="rounded=0;whiteSpace=wrap;html=1;dashed=1;" parent="ojZgDr6NKGLDcIFSvO-Y-57" vertex="1"><mxGeometry x="50" y="70" width="80" height="100" as="geometry"/></mxCell><mxCell id="ojZgDr6NKGLDcIFSvO-Y-54" value="指标处理上传" style="rounded=0;whiteSpace=wrap;html=1;dashed=1;" parent="ojZgDr6NKGLDcIFSvO-Y-57" vertex="1"><mxGeometry x="150" y="70" width="80" height="100" as="geometry"/></mxCell><mxCell id="ojZgDr6NKGLDcIFSvO-Y-55" value="数据保存&lt;br&gt;解析storage_class，&lt;br&gt;组装保存sql" style="rounded=0;whiteSpace=wrap;html=1;dashed=1;" parent="ojZgDr6NKGLDcIFSvO-Y-57" vertex="1"><mxGeometry x="250" y="70" width="80" height="100" as="geometry"/></mxCell><mxCell id="ojZgDr6NKGLDcIFSvO-Y-58" value="" style="group" parent="1" vertex="1" connectable="0"><mxGeometry x="782" y="585" width="560" height="260" as="geometry"/></mxCell><mxCell id="ojZgDr6NKGLDcIFSvO-Y-48" value="" style="rounded=0;whiteSpace=wrap;html=1;dashed=1;" parent="ojZgDr6NKGLDcIFSvO-Y-58" vertex="1"><mxGeometry width="560" height="260" as="geometry"/></mxCell><mxCell id="ojZgDr6NKGLDcIFSvO-Y-34" value="爬虫程序" style="rounded=0;whiteSpace=wrap;html=1;" parent="ojZgDr6NKGLDcIFSvO-Y-58" vertex="1"><mxGeometry x="84" y="60" width="230" height="50" as="geometry"/></mxCell><mxCell id="ojZgDr6NKGLDcIFSvO-Y-35" value="程序启动" style="rounded=0;whiteSpace=wrap;html=1;" parent="ojZgDr6NKGLDcIFSvO-Y-58" vertex="1"><mxGeometry x="84" y="140" width="230" height="50" as="geometry"/></mxCell><mxCell id="ojZgDr6NKGLDcIFSvO-Y-37" value="相关环境变量" style="rounded=0;whiteSpace=wrap;html=1;" parent="ojZgDr6NKGLDcIFSvO-Y-58" vertex="1"><mxGeometry x="374" y="60" width="120" height="50" as="geometry"/></mxCell><mxCell id="ojZgDr6NKGLDcIFSvO-Y-39" value="程序结束" style="rounded=0;whiteSpace=wrap;html=1;" parent="ojZgDr6NKGLDcIFSvO-Y-58" vertex="1"><mxGeometry x="394" y="140" width="100" height="50" as="geometry"/></mxCell><mxCell id="ojZgDr6NKGLDcIFSvO-Y-36" value="" style="edgeStyle=none;rounded=0;orthogonalLoop=1;jettySize=auto;html=1;" parent="ojZgDr6NKGLDcIFSvO-Y-58" source="ojZgDr6NKGLDcIFSvO-Y-34" target="ojZgDr6NKGLDcIFSvO-Y-35" edge="1"><mxGeometry relative="1" as="geometry"/></mxCell><mxCell id="ojZgDr6NKGLDcIFSvO-Y-38" style="edgeStyle=none;rounded=0;orthogonalLoop=1;jettySize=auto;html=1;" parent="ojZgDr6NKGLDcIFSvO-Y-58" source="ojZgDr6NKGLDcIFSvO-Y-37" target="ojZgDr6NKGLDcIFSvO-Y-34" edge="1"><mxGeometry relative="1" as="geometry"/></mxCell><mxCell id="ojZgDr6NKGLDcIFSvO-Y-40" value="" style="edgeStyle=none;rounded=0;orthogonalLoop=1;jettySize=auto;html=1;" parent="ojZgDr6NKGLDcIFSvO-Y-58" source="ojZgDr6NKGLDcIFSvO-Y-35" target="ojZgDr6NKGLDcIFSvO-Y-39" edge="1"><mxGeometry relative="1" as="geometry"/></mxCell><mxCell id="ojZgDr6NKGLDcIFSvO-Y-82" style="edgeStyle=none;rounded=0;orthogonalLoop=1;jettySize=auto;html=1;dashed=1;" parent="ojZgDr6NKGLDcIFSvO-Y-58" source="ojZgDr6NKGLDcIFSvO-Y-81" target="ojZgDr6NKGLDcIFSvO-Y-34" edge="1"><mxGeometry relative="1" as="geometry"/></mxCell><mxCell id="ojZgDr6NKGLDcIFSvO-Y-81" value="task_name" style="text;html=1;strokeColor=none;fillColor=none;align=center;verticalAlign=middle;whiteSpace=wrap;rounded=0;" parent="ojZgDr6NKGLDcIFSvO-Y-58" vertex="1"><mxGeometry x="394" y="25" width="60" height="30" as="geometry"/></mxCell><mxCell id="ojZgDr6NKGLDcIFSvO-Y-66" value="task&lt;br&gt;基于调度信息，生成task任务，保存到服务端" style="rounded=0;whiteSpace=wrap;html=1;" parent="1" vertex="1"><mxGeometry x="440" y="560" width="190" height="60" as="geometry"/></mxCell><mxCell id="ojZgDr6NKGLDcIFSvO-Y-67" style="edgeStyle=none;rounded=0;orthogonalLoop=1;jettySize=auto;html=1;dashed=1;" parent="1" source="ojZgDr6NKGLDcIFSvO-Y-17" target="ojZgDr6NKGLDcIFSvO-Y-66" edge="1"><mxGeometry relative="1" as="geometry"/></mxCell><mxCell id="ojZgDr6NKGLDcIFSvO-Y-68" style="edgeStyle=none;rounded=0;orthogonalLoop=1;jettySize=auto;html=1;dashed=1;" parent="1" source="ojZgDr6NKGLDcIFSvO-Y-9" target="ojZgDr6NKGLDcIFSvO-Y-66" edge="1"><mxGeometry relative="1" as="geometry"/></mxCell><mxCell id="ojZgDr6NKGLDcIFSvO-Y-70" style="edgeStyle=none;rounded=0;orthogonalLoop=1;jettySize=auto;html=1;dashed=1;" parent="1" source="ojZgDr6NKGLDcIFSvO-Y-69" target="ojZgDr6NKGLDcIFSvO-Y-34" edge="1"><mxGeometry relative="1" as="geometry"/></mxCell><mxCell id="ojZgDr6NKGLDcIFSvO-Y-72" style="edgeStyle=none;rounded=0;orthogonalLoop=1;jettySize=auto;html=1;dashed=1;" parent="1" source="ojZgDr6NKGLDcIFSvO-Y-69" target="ojZgDr6NKGLDcIFSvO-Y-55" edge="1"><mxGeometry relative="1" as="geometry"/></mxCell><mxCell id="ojZgDr6NKGLDcIFSvO-Y-69" value="数据增量方式" style="ellipse;whiteSpace=wrap;html=1;dashed=1;" parent="1" vertex="1"><mxGeometry x="1121" y="445" width="120" height="80" as="geometry"/></mxCell><mxCell id="ojZgDr6NKGLDcIFSvO-Y-75" style="edgeStyle=none;rounded=0;orthogonalLoop=1;jettySize=auto;html=1;dashed=1;" parent="1" source="ojZgDr6NKGLDcIFSvO-Y-73" target="ojZgDr6NKGLDcIFSvO-Y-34" edge="1"><mxGeometry relative="1" as="geometry"/></mxCell><mxCell id="ojZgDr6NKGLDcIFSvO-Y-73" value="redis或缓存队列&lt;br&gt;记录增量位置或基础数据" style="ellipse;whiteSpace=wrap;html=1;dashed=1;" parent="1" vertex="1"><mxGeometry x="780" y="480" width="120" height="80" as="geometry"/></mxCell><mxCell id="ojZgDr6NKGLDcIFSvO-Y-77" value="&lt;h1&gt;备注&lt;/h1&gt;&lt;p&gt;1.调度器重启后，重新获取上游job数据，历史执行器任务继续执行&lt;/p&gt;&lt;p&gt;2.server中断后，保持现有的内容调度，连接成功后，进行任务对比，缺失补齐调度，状态一致&lt;/p&gt;&lt;p&gt;3.server中断后，历史调度程序回写task异常时，数据保留，连接后，再次重写&lt;/p&gt;" style="text;html=1;strokeColor=none;fillColor=none;spacing=5;spacingTop=-20;whiteSpace=wrap;overflow=hidden;rounded=0;" parent="1" vertex="1"><mxGeometry x="80" y="980" width="280" height="170" as="geometry"/></mxCell><mxCell id="ojZgDr6NKGLDcIFSvO-Y-78" style="edgeStyle=none;rounded=0;orthogonalLoop=1;jettySize=auto;html=1;dashed=1;" parent="1" source="ojZgDr6NKGLDcIFSvO-Y-17" target="ojZgDr6NKGLDcIFSvO-Y-77" edge="1"><mxGeometry relative="1" as="geometry"/></mxCell><mxCell id="ojZgDr6NKGLDcIFSvO-Y-79" value="&lt;h1&gt;备注&lt;/h1&gt;&lt;p&gt;1.执行器异常后，已经起来的任务，继续&lt;/p&gt;&lt;p&gt;2.执行器重启后，连接调度器，判断任务状态，或删除，或继续，确保爬虫程序管理完整&lt;/p&gt;&lt;p&gt;3.重新注册，上报资源&lt;/p&gt;&lt;p&gt;&lt;br&gt;&lt;/p&gt;" style="text;html=1;strokeColor=none;fillColor=none;spacing=5;spacingTop=-20;whiteSpace=wrap;overflow=hidden;rounded=0;" parent="1" vertex="1"><mxGeometry x="490" y="990" width="280" height="170" as="geometry"/></mxCell><mxCell id="ojZgDr6NKGLDcIFSvO-Y-80" style="edgeStyle=none;rounded=0;orthogonalLoop=1;jettySize=auto;html=1;dashed=1;exitX=0.75;exitY=1;exitDx=0;exitDy=0;" parent="1" source="ojZgDr6NKGLDcIFSvO-Y-28" target="ojZgDr6NKGLDcIFSvO-Y-79" edge="1"><mxGeometry relative="1" as="geometry"/></mxCell><mxCell id="ojZgDr6NKGLDcIFSvO-Y-87" style="edgeStyle=none;rounded=0;orthogonalLoop=1;jettySize=auto;html=1;" parent="1" source="ojZgDr6NKGLDcIFSvO-Y-84" target="ojZgDr6NKGLDcIFSvO-Y-2" edge="1"><mxGeometry relative="1" as="geometry"/></mxCell><mxCell id="ojZgDr6NKGLDcIFSvO-Y-84" value="页面提供归档创建" style="rounded=0;whiteSpace=wrap;html=1;fillColor=#FFE6CC;strokeColor=#D79B00;" parent="1" vertex="1"><mxGeometry x="280" y="210" width="200" height="50" as="geometry"/></mxCell></root></mxGraphModel></diagram></mxfile>